<?xml version="1.0" encoding="UTF-8" standalone="no"?><!DOCTYPE svg PUBLIC "-//W3C//DTD SVG 1.1//EN" "http://www.w3.org/Graphics/SVG/1.1/DTD/svg11.dtd"><svg width="100%" height="100%" viewBox="0 0 256 256" version="1.1" xmlns="http://www.w3.org/2000/svg" xmlns:xlink="http://www.w3.org/1999/xlink" xml:space="preserve" xmlns:serif="http://www.serif.com/" style="fill-rule:evenodd;clip-rule:evenodd;stroke-linejoin:round;stroke-miterlimit:2;"><g><path d="M180.474,107.658c-0.654,-0.973 -1.814,-1.459 -2.964,-1.234l-35.866,6.91l7.282,-70.273c0.139,-1.336 -0.65,-2.585 -1.918,-3.036c-1.269,-0.449 -2.668,0.022 -3.404,1.146l-68.094,103.96c-0.642,0.979 -0.637,2.241 0.016,3.21c0.646,0.966 1.806,1.453 2.964,1.238l35.868,-6.912l-7.282,70.271c-0.139,1.34 0.65,2.589 1.918,3.038c0.311,0.11 0.639,0.166 0.972,0.166c0.983,0 1.89,-0.492 2.431,-1.312l68.094,-103.96c0.642,-0.979 0.635,-2.241 -0.016,-3.212Z" style="fill:none;fill-rule:nonzero;stroke:#fff;stroke-width:15.5px;"/></g></svg>